# xmcd CD database file
#
# Track frame offsets:
#	150
#	22260
#	38757
#	64002
#
# Disc length: 1130 seconds
#
# Revision: 0
# Processed by: cddbd v1.5.1PL0 Copyright (c) Steve Scherf et al.
# Submitted via: CDex 1.51
#
DISCID=2f046804
DTITLE=久保田　利伸 - Funk It Up/Nice and EZ
DYEAR=1900
DGENRE=R&B
TTITLE0=Funk It Up
TTITLE1=Funk It Up -MORALES CLUB FUNK MIX-
TTITLE2=Funk It Up -ALL STAR STREET FUNK MIX-
TTITLE3=Nice and EZ
EXTD=
EXTT0=
EXTT1=
EXTT2=
EXTT3=
PLAYORDER=
